<svg data-v-423bf9ae="" xmlns="http://www.w3.org/2000/svg" viewBox="0 0 334 90" class="iconLeft"><!----><!----><!----><g data-v-423bf9ae="" id="0e9e28d3-6dd9-49fc-ab5a-2afc3e14c100" fill="#0C3507" transform="matrix(6.054490506946714,0,0,6.054490506946714,113.92132781919969,10.761857849800698)"><path d="M1.65 1.46L7.49 1.46L7.49 0.70L0.90 0.70L0.90 10.51L1.65 10.51L1.65 6.08L7.29 6.08L7.29 5.36L1.65 5.36ZM9.03 3.58L9.03 10.50L9.72 10.50L9.72 6.47C9.72 5.21 10.71 4.17 12.00 4.16C12.40 4.16 12.81 4.26 13.17 4.48L13.48 3.92C13.02 3.64 12.52 3.50 12.00 3.51C11.12 3.51 10.14 3.88 9.70 4.82L9.67 3.58ZM20.90 10.50L20.90 3.57L20.22 3.57L20.22 7.42C20.22 8.85 19.22 9.93 17.79 9.94C16.30 9.95 15.33 9.11 15.33 7.55L15.33 3.57L14.64 3.57L14.64 7.56C14.64 9.48 15.92 10.61 17.77 10.61C18.73 10.60 19.70 10.21 20.23 9.25L20.23 10.50ZM23.39 3.56L23.39 10.50L22.71 10.50L22.71 3.56ZM22.51 1.33C22.51 2.06 23.62 2.06 23.62 1.33C23.62 0.60 22.51 0.60 22.51 1.33ZM26.26 1.57L26.26 3.58L24.79 3.58L24.79 4.16L26.26 4.16L26.26 8.37C26.26 9.73 26.74 10.60 28.21 10.60C28.64 10.60 29.08 10.46 29.51 10.25L29.27 9.69C28.92 9.86 28.55 9.97 28.21 9.97C27.13 9.97 26.94 9.31 26.94 8.37L26.94 4.16L29.29 4.16L29.29 3.58L26.94 3.58L26.94 1.50ZM36.04 4.40C35.35 3.75 34.47 3.47 33.46 3.47C32.06 3.46 30.70 4.05 30.72 5.40C30.73 6.79 32.06 7.04 33.40 7.27C34.54 7.45 35.69 7.64 35.66 8.64C35.62 9.73 34.34 9.95 33.50 9.95C32.58 9.95 31.54 9.60 30.97 8.78L30.46 9.23C31.07 10.15 32.27 10.61 33.49 10.61C34.71 10.61 36.29 10.21 36.33 8.68C36.40 7.07 34.71 6.86 33.47 6.65C32.61 6.50 31.40 6.31 31.37 5.39C31.35 4.51 32.38 4.10 33.46 4.12C34.23 4.12 34.92 4.23 35.62 4.84Z"></path></g><defs data-v-423bf9ae=""><linearGradient data-v-423bf9ae="" gradientTransform="rotate(25)" id="2c09089c-4754-4478-a1c5-485cf5c493f1" x1="0%" y1="0%" x2="100%" y2="0%"><stop data-v-423bf9ae="" offset="0%" style="stop-color: rgb(90, 90, 45); stop-opacity: 1;"></stop><stop data-v-423bf9ae="" offset="100%" style="stop-color: rgb(13, 227, 13); stop-opacity: 1;"></stop></linearGradient></defs><g data-v-423bf9ae="" id="4e452e0c-d4ef-4c3d-9306-c5f1640a10c7" transform="matrix(1.0800540554397864,0,0,1.0800540554397864,-1.8452933130198161,-6.507129580048691)" stroke="none" fill="url(#2c09089c-4754-4478-a1c5-485cf5c493f1)"><path d="M32.524 18.46l8.716-8.712c.78-.78.78-2.048 0-2.828a2.001 2.001 0 00-2.828 0l-10.24 10.236a1.81 1.81 0 00-.336.508h-2.9C11.14 17.664 2 52.384 2 66.452c0 14.096 9.004 23.212 22.936 23.212h4.192c13.928 0 22.933-9.107 22.933-23.212.003-12.872-7.665-42.96-19.537-47.992zM63.764 39.968c.156.04.32.06.484.06a1.998 1.998 0 002-1.96c.1-4.956.416-20.04-13.309-22.252a2 2 0 00-2.184 1.26c-1.939 5.06-1.852 9.86.248 13.884 2.253 4.328 6.789 7.528 12.761 9.008z"></path><path d="M71.973 41.972l7.252-7.256a2.003 2.003 0 000-2.828 2.001 2.001 0 00-2.828 0l-9.448 9.456c-.093.092-.14.212-.216.32h-3.097c-3.911 0-7.696 1.044-11.168 2.82 2.425 8.872 3.597 17.388 3.597 21.976 0 8.132-2.709 14.937-7.42 19.704 4.151 2.256 9.287 3.5 14.996 3.5h4.728c15.575 0 25.636-8.492 25.636-21.637-.009-13.031-9.776-24.183-22.032-26.055z"></path></g><!----></svg>